<svg xmlns="http://www.w3.org/2000/svg" xmlns:xlink="http://www.w3.org/1999/xlink" version="1.1" data-diagram-type="STATE" style="width:2331px;height:1192px;background:#FFFFFF;" width="2331px" height="1192px" viewBox="0 0 2331 1192" zoomAndPan="magnify" preserveAspectRatio="none" contentStyleType="text/css"><?plantuml 1.2026.8?><defs/><g font-family="sans-serif" lengthAdjust="spacing"><g class="title" data-source-line="11"><text x="996.972" y="22.995" fill="#000" font-size="14" textLength="330.066" font-weight="700">Storefront and admin — logical state map</text></g><!--cluster Anon--><g class="cluster" data-qualified-name="Anon" id="ent0001" data-source-line="13"><path d="M1976.51,264.187 L2303.51,264.187 A12.5,12.5 0 0 1 2316.01,276.687 L2316.01,285.484 L1964.01,285.484 L1964.01,276.687 A12.5,12.5 0 0 1 1976.51,264.187" fill="#F1F1F1"/><rect x="1964.01" y="264.187" width="352" height="592.05" fill="none" style="stroke:#181818;stroke-width:0.5;" rx="12.5" ry="12.5"/><line x1="1964.01" y1="285.484" x2="2316.01" y2="285.484" style="stroke:#181818;stroke-width:0.5;"/><text x="2098.738" y="281.182" fill="#000" font-size="14" textLength="82.544">Anonymous</text></g><!--cluster Customer--><g class="cluster" data-qualified-name="Customer" id="ent0008" data-source-line="45"><path d="M929.51,306.227 L1513.51,306.227 A12.5,12.5 0 0 1 1526.01,318.727 L1526.01,327.524 L917.01,327.524 L917.01,318.727 A12.5,12.5 0 0 1 929.51,306.227" fill="#F1F1F1"/><rect x="917.01" y="306.227" width="609" height="730.2" fill="none" style="stroke:#181818;stroke-width:0.5;" rx="12.5" ry="12.5"/><line x1="917.01" y1="327.524" x2="1526.01" y2="327.524" style="stroke:#181818;stroke-width:0.5;"/><text x="1136.85" y="323.222" fill="#000" font-size="14" textLength="169.319">Authenticated customer</text></g><g class="entity" data-qualified-name="Anon.Browsing" id="ent0002" data-source-line="14"><rect x="2014.62" y="326.187" width="242.79" height="134.078" fill="#F1F1F1" style="stroke:#181818;stroke-width:0.5;" rx="12.5" ry="12.5"/><line x1="2014.62" y1="352.484" x2="2257.41" y2="352.484" style="stroke:#181818;stroke-width:0.5;"/><text x="2103.855" y="344.182" fill="#000" font-size="14" textLength="64.319">Browsing</text><text x="2019.62" y="370.479" fill="#000" font-size="14" textLength="222.79">/catalogue  (redirect target of /)</text><text x="2019.62" y="386.776" fill="#000" font-size="14" textLength="117.64">/products/{slug}</text><text x="2019.62" y="403.073" fill="#000" font-size="14" textLength="166.66">/journal, /journal/{slug}</text><text x="2019.62" y="419.369" fill="#000" font-size="14" textLength="221.416">/about, /contact, /faq, /delivery,</text><text x="2019.62" y="435.666" fill="#000" font-size="14" textLength="212.037">/payment-information, /terms,</text><text x="2019.62" y="451.963" fill="#000" font-size="14" textLength="122.445">/privacy, /cookies</text></g><g class="entity" data-qualified-name="Anon.CartState" id="ent0003" data-source-line="22"><rect x="2009.69" y="561.707" width="268.657" height="52.594" fill="#F1F1F1" style="stroke:#181818;stroke-width:0.5;" rx="12.5" ry="12.5"/><line x1="2009.69" y1="588.004" x2="2278.347" y2="588.004" style="stroke:#181818;stroke-width:0.5;"/><text x="2089.697" y="579.702" fill="#000" font-size="14" textLength="108.644">Shopping (cart)</text><text x="2014.69" y="605.999" fill="#000" font-size="14" textLength="248.657">/cart — App\Livewire\Cart\CartPage</text></g><g class="entity" data-qualified-name="Anon.GuestCheckout" id="ent0004" data-source-line="25"><rect x="1996.3" y="747.047" width="295.427" height="85.188" fill="#F1F1F1" style="stroke:#181818;stroke-width:0.5;" rx="12.5" ry="12.5"/><line x1="1996.3" y1="773.344" x2="2291.727" y2="773.344" style="stroke:#181818;stroke-width:0.5;"/><text x="2083.751" y="765.042" fill="#000" font-size="14" textLength="120.524">Checkout (guest)</text><text x="2001.3" y="791.339" fill="#000" font-size="14" textLength="275.427">/checkout — same component whether</text><text x="2001.3" y="807.636" fill="#000" font-size="14" textLength="205.153">signed in or not (§37 #6/#7);</text><text x="2001.3" y="823.933" fill="#000" font-size="14" textLength="209.87">guest order carries no user_id</text></g><g class="entity" data-qualified-name="Customer.CustBrowsing" id="ent0009" data-source-line="46"><rect x="1116.34" y="368.227" width="163.35" height="50" fill="#F1F1F1" style="stroke:#181818;stroke-width:0.5;" rx="12.5" ry="12.5"/><line x1="1116.34" y1="394.524" x2="1279.69" y2="394.524" style="stroke:#181818;stroke-width:0.5;"/><text x="1126.34" y="386.222" fill="#000" font-size="14" textLength="143.35">Browsing (signed in)</text></g><g class="entity" data-qualified-name="Customer.CustCart" id="ent0010" data-source-line="47"><rect x="948.62" y="563.007" width="164.778" height="50" fill="#F1F1F1" style="stroke:#181818;stroke-width:0.5;" rx="12.5" ry="12.5"/><line x1="948.62" y1="589.304" x2="1113.398" y2="589.304" style="stroke:#181818;stroke-width:0.5;"/><text x="958.62" y="581.002" fill="#000" font-size="14" textLength="144.778">Shopping (signed in)</text></g><g class="entity" data-qualified-name="Customer.CustCheckout" id="ent0011" data-source-line="48"><rect x="1067.32" y="755.197" width="315.388" height="68.891" fill="#F1F1F1" style="stroke:#181818;stroke-width:0.5;" rx="12.5" ry="12.5"/><line x1="1067.32" y1="781.494" x2="1382.708" y2="781.494" style="stroke:#181818;stroke-width:0.5;"/><text x="1152.502" y="773.192" fill="#000" font-size="14" textLength="145.024">Checkout (signed in)</text><text x="1072.32" y="799.489" fill="#000" font-size="14" textLength="295.388">same CheckoutPage component as guest;</text><text x="1072.32" y="815.786" fill="#000" font-size="14" textLength="235.532">prefilled details, order.user_id set</text></g><g class="entity" data-qualified-name="Customer.Confirmation" id="ent0012" data-source-line="52"><rect x="1168.29" y="927.237" width="301.456" height="85.188" fill="#F1F1F1" style="stroke:#181818;stroke-width:0.5;" rx="12.5" ry="12.5"/><line x1="1168.29" y1="953.534" x2="1469.746" y2="953.534" style="stroke:#181818;stroke-width:0.5;"/><text x="1252.405" y="945.232" fill="#000" font-size="14" textLength="133.226">Order confirmation</text><text x="1173.29" y="971.529" fill="#000" font-size="14" textLength="222.202">/checkout/confirmation/{order}</text><text x="1173.29" y="987.826" fill="#000" font-size="14" textLength="281.456">NOT a public lookup — refuses anything</text><text x="1173.29" y="1004.123" fill="#000" font-size="14" textLength="274.429">the visitor neither owns nor just placed</text></g><g class="entity" data-qualified-name="Customer.Account" id="ent0013" data-source-line="57"><rect x="1148.36" y="545.417" width="353.313" height="85.188" fill="#F1F1F1" style="stroke:#181818;stroke-width:0.5;" rx="12.5" ry="12.5"/><line x1="1148.36" y1="571.714" x2="1501.673" y2="571.714" style="stroke:#181818;stroke-width:0.5;"/><text x="1296.631" y="563.412" fill="#000" font-size="14" textLength="56.772">Account</text><text x="1153.36" y="589.709" fill="#000" font-size="14" textLength="179.108">/account/password (auth)</text><text x="1153.36" y="606.006" fill="#000" font-size="14" textLength="229.154">/account/orders (auth, scoped to</text><text x="1153.36" y="622.303" fill="#000" font-size="14" textLength="333.313">auth()->user()->orders(), never Order::query())</text></g><g class="entity" data-qualified-name="AuthFlow" id="ent0005" data-source-line="35"><path d="M1531.43,44.297 L2048.591,44.297 A12.5,12.5 0 0 1 2061.091,56.797 L2061.091,70.594 L1518.93,70.594 L1518.93,56.797 A12.5,12.5 0 0 1 1531.43,44.297" fill="#F1F1F1"/><rect x="1518.93" y="44.297" width="542.161" height="103.891" fill="none" style="stroke:#181818;stroke-width:0.5;" rx="12.5" ry="12.5"/><line x1="1518.93" y1="70.594" x2="2061.091" y2="70.594" style="stroke:#181818;stroke-width:0.5;"/><text x="1738.464" y="62.292" fill="#000" font-size="14" textLength="103.093">Authenticating</text><g class="entity" data-qualified-name="AuthFlow.Login" id="ent0006" data-source-line="36"><rect x="1530.93" y="82.594" width="234.067" height="52.594" fill="#F1F1F1" style="stroke:#181818;stroke-width:0.5;" rx="12.5" ry="12.5"/><line x1="1530.93" y1="108.891" x2="1764.997" y2="108.891" style="stroke:#181818;stroke-width:0.5;"/><text x="1628.956" y="100.589" fill="#000" font-size="14" textLength="38.015">Login</text><text x="1535.93" y="126.886" fill="#000" font-size="14" textLength="214.067">/login (guest middleware only)</text></g><g class="entity" data-qualified-name="AuthFlow.Register" id="ent0007" data-source-line="38"><rect x="1782.83" y="82.594" width="254.261" height="52.594" fill="#F1F1F1" style="stroke:#181818;stroke-width:0.5;" rx="12.5" ry="12.5"/><line x1="1782.83" y1="108.891" x2="2037.091" y2="108.891" style="stroke:#181818;stroke-width:0.5;"/><text x="1880.826" y="100.589" fill="#000" font-size="14" textLength="58.27">Register</text><text x="1787.83" y="126.886" fill="#000" font-size="14" textLength="234.261">/register (guest middleware only)</text></g></g><g class="entity" data-qualified-name="Tracking" id="ent0014" data-source-line="74"><rect x="1585.61" y="537.267" width="318.806" height="101.484" fill="#F1F1F1" style="stroke:#181818;stroke-width:0.5;" rx="12.5" ry="12.5"/><line x1="1585.61" y1="563.564" x2="1904.416" y2="563.564" style="stroke:#181818;stroke-width:0.5;"/><text x="1595.61" y="555.262" fill="#000" font-size="14" textLength="298.806">Order tracking (public, no session needed)</text><text x="1590.61" y="581.559" fill="#000" font-size="14" textLength="271.633">/orders/track — requires order number</text><text x="1590.61" y="597.856" fill="#000" font-size="14" textLength="287.923">AND email together (sequential numbers</text><text x="1590.61" y="614.153" fill="#000" font-size="14" textLength="280.075">alone would enumerate every address);</text><text x="1590.61" y="630.449" fill="#000" font-size="14" textLength="81.785">rate-limited</text></g><g class="entity" data-qualified-name="AdminGate" id="ent0015"><polygon points="613.01,576.007,625.01,588.007,613.01,600.007,601.01,588.007,613.01,576.007" fill="#F1F1F1" style="stroke:#181818;stroke-width:0.5;stroke-linejoin:miter;stroke-miterlimit:10;"/></g><g class="entity" data-qualified-name="Staff" id="ent0016" data-source-line="84"><rect x="7" y="730.747" width="338.028" height="117.781" fill="#F1F1F1" style="stroke:#181818;stroke-width:0.5;" rx="12.5" ry="12.5"/><line x1="7" y1="757.044" x2="345.028" y2="757.044" style="stroke:#181818;stroke-width:0.5;"/><text x="106.688" y="748.742" fill="#000" font-size="14" textLength="138.653">Staff (panel access)</text><text x="12" y="775.039" fill="#000" font-size="14" textLength="277.088">/admin/* — gated by canAccessPanel():</text><text x="12" y="791.336" fill="#000" font-size="14" textLength="272.48">role membership (User::STAFF_ROLES)</text><text x="12" y="807.633" fill="#000" font-size="14" textLength="284.806">AND is_active, re-checked every request</text><text x="12" y="823.929" fill="#000" font-size="14" textLength="318.028">(EnsureAccountIsActive) — a session outlives</text><text x="12" y="840.226" fill="#000" font-size="14" textLength="225.463">the row it authenticated against</text></g><g class="entity" data-qualified-name="PanelDenied" id="ent0017" data-source-line="91"><rect x="736.38" y="764.637" width="119.278" height="50" fill="#F1F1F1" style="stroke:#181818;stroke-width:0.5;" rx="12.5" ry="12.5"/><line x1="736.38" y1="790.934" x2="855.658" y2="790.934" style="stroke:#181818;stroke-width:0.5;"/><text x="746.38" y="782.632" fill="#000" font-size="14" textLength="99.278">Denied — 403</text></g><g class="entity" data-qualified-name="GMN37" id="ent0038" data-source-line="99"><path d="M380.41,739.247 L380.41,785.637 L345.33,789.637 L380.41,793.637 L380.41,840.044 A0,0 0 0 0 380.41,840.044 L701.61,840.044 A0,0 0 0 0 701.61,840.044 L701.61,749.247 L691.61,739.247 L380.41,739.247 A0,0 0 0 0 380.41,739.247" style="stroke:#181818;stroke-width:0.5;" fill="#FEFFDD"/><path d="M691.61,739.247 L691.61,749.247 L701.61,749.247 L691.61,739.247" style="stroke:#181818;stroke-width:0.5;" fill="#FEFFDD"/><text x="386.41" y="756.314" fill="#000" font-size="13" textLength="268.15">No /admin/login — Filament's own login()</text><text x="386.41" y="771.447" fill="#000" font-size="13" textLength="277.412">is removed; staff sign in through the same</text><text x="386.41" y="786.579" fill="#000" font-size="13" textLength="268.074">/login the storefront uses, then reach the</text><text x="386.41" y="801.712" fill="#000" font-size="13" textLength="300.2">panel via "Admin panel" in the account menu,</text><text x="386.41" y="816.845" fill="#000" font-size="13" textLength="269.255">which calls canAccessPanel() itself so the</text><text x="386.41" y="831.978" fill="#000" font-size="13" textLength="223.729">link and the gate cannot disagree.</text></g><g class="entity" data-qualified-name="GMN40" id="ent0041" data-source-line="108"><path d="M1151.61,1091.427 L1151.61,1177.091 A0,0 0 0 0 1151.61,1177.091 L1486.413,1177.091 A0,0 0 0 0 1486.413,1177.091 L1486.413,1101.427 L1476.413,1091.427 L1323.01,1091.427 L1319.01,1012.657 L1315.01,1091.427 L1151.61,1091.427 A0,0 0 0 0 1151.61,1091.427" style="stroke:#181818;stroke-width:0.5;" fill="#FEFFDD"/><path d="M1476.413,1091.427 L1476.413,1101.427 L1486.413,1101.427 L1476.413,1091.427" style="stroke:#181818;stroke-width:0.5;" fill="#FEFFDD"/><text x="1157.61" y="1108.494" fill="#000" font-size="13" textLength="296.658">Guest and signed-in checkout converge here.</text><text x="1157.61" y="1123.627" fill="#000" font-size="13" textLength="295.502">This is NOT the OrderStatus state machine —</text><text x="1157.61" y="1138.759" fill="#000" font-size="13" textLength="282.369">that begins after this point and is driven by</text><text x="1157.61" y="1153.892" fill="#000" font-size="13" textLength="313.803">TransitionOrderStatus (ADR-0004), independent</text><text x="1157.61" y="1169.025" fill="#000" font-size="13" textLength="251.799">of which visitor state placed the order.</text></g><!--link Browsing to CartState--><g class="link" data-entity-1="ent0002" data-entity-2="ent0003" id="lnk18" data-source-line="30" data-link-type="dependency"><path d="M2058.9,460.497 C2050.25,475.217 2046.8,491.237 2054.01,507.267 C2063.95,529.347 2079.346,544.816 2097.606,558.376" style="stroke:#181818;stroke-width:1;" fill="none" id="Browsing-to-CartState"/><polygon points="2101.62,561.357,2096.779,552.78,2097.606,558.376,2092.01,559.202,2101.62,561.357" fill="#181818" style="stroke:#181818;stroke-width:1;stroke-linejoin:miter;stroke-miterlimit:10;"/><text x="2055.01" y="503.334" fill="#000" font-size="13" textLength="71.341">add to cart</text></g><!--link CartState to Browsing--><g class="link" data-entity-1="ent0003" data-entity-2="ent0002" id="lnk19" data-source-line="31" data-link-type="dependency"><path d="M2142.94,561.227 C2141.88,535.597 2140.406,500.203 2138.976,465.563" style="stroke:#181818;stroke-width:1;" fill="none" id="CartState-to-Browsing"/><polygon points="2138.77,460.567,2135.145,469.724,2138.976,465.563,2143.138,469.394,2138.77,460.567" fill="#181818" style="stroke:#181818;stroke-width:1;stroke-linejoin:miter;stroke-miterlimit:10;"/><text x="2141.49" y="503.334" fill="#000" font-size="13" textLength="94.967">keep browsing</text></g><!--link CartState to GuestCheckout--><g class="link" data-entity-1="ent0003" data-entity-2="ent0004" id="lnk20" data-source-line="32" data-link-type="dependency"><path d="M2144.01,614.697 C2144.01,648.077 2144.01,701.807 2144.01,741.697" style="stroke:#181818;stroke-width:1;" fill="none" id="CartState-to-GuestCheckout"/><polygon points="2144.01,746.697,2148.01,737.697,2144.01,741.697,2140.01,737.697,2144.01,746.697" fill="#181818" style="stroke:#181818;stroke-width:1;stroke-linejoin:miter;stroke-miterlimit:10;"/><text x="2145.01" y="689.314" fill="#000" font-size="13" textLength="133.612">proceed to checkout</text></g><!--link Anon to AuthFlow--><g class="link" data-entity-1="ent0001" data-entity-2="ent0005" id="lnk21" data-source-line="42" data-link-type="dependency"><path d="M1967.043,263.556 C1966.897,262.823 1966.749,262.089 1966.599,261.356 C1965.392,255.487 1964.014,249.609 1962.444,243.766 C1956.161,220.394 1946.798,197.582 1933.01,178.187 C1925.08,167.027 1919.029,160.286 1908.039,151.696" style="stroke:#181818;stroke-width:1;" fill="none" id="Anon-to-AuthFlow"/><polygon points="1904.1,148.617,1908.728,157.311,1908.039,151.696,1913.654,151.008,1904.1,148.617" fill="#181818" style="stroke:#181818;stroke-width:1;stroke-linejoin:miter;stroke-miterlimit:10;"/><text x="1961.34" y="213.754" fill="#000" font-size="13" textLength="154.883">follow /login or /register</text></g><!--link AuthFlow to Anon--><g class="link" data-entity-1="ent0005" data-entity-2="ent0001" id="lnk22" data-source-line="43" data-link-type="dependency"><path d="M1775.97,148.547 C1770.97,176.887 1769.49,211.957 1783.01,240.187 C1805.935,288.042 1852.08,325.622 1893.034,351.448 C1913.511,364.361 1932.69,374.336 1947.02,381.187 C1950.602,382.9 1953.881,384.418 1956.802,385.737 C1958.263,386.397 1959.633,387.007 1960.908,387.568 C1961.545,387.848 1962.158,388.116 1962.746,388.371 C1963.04,388.498 1958.736,386.643 1959.017,386.764" style="stroke:#181818;stroke-width:1;" fill="none" id="AuthFlow-to-Anon"/><polygon points="1963.609,388.744,1956.928,381.507,1959.017,386.764,1953.76,388.853,1963.609,388.744" fill="#181818" style="stroke:#181818;stroke-width:1;stroke-linejoin:miter;stroke-miterlimit:10;"/><text x="1784.01" y="213.754" fill="#000" font-size="13" textLength="140.455">back (still no session)</text></g><!--link CustBrowsing to CustCart--><g class="link" data-entity-1="ent0009" data-entity-2="ent0010" id="lnk23" data-source-line="62" data-link-type="dependency"><path d="M1173.8,418.517 C1155.08,437.597 1128.78,465.057 1107.01,490.267 C1086.36,514.197 1067.196,538.799 1052.166,558.669" style="stroke:#181818;stroke-width:1;" fill="none" id="CustBrowsing-to-CustCart"/><polygon points="1049.15,562.657,1057.77,557.892,1052.166,558.669,1051.389,553.066,1049.15,562.657" fill="#181818" style="stroke:#181818;stroke-width:1;stroke-linejoin:miter;stroke-miterlimit:10;"/><text x="1108.01" y="503.334" fill="#000" font-size="13" textLength="71.341">add to cart</text></g><!--link CustCart to CustCheckout--><g class="link" data-entity-1="ent0010" data-entity-2="ent0011" id="lnk24" data-source-line="63" data-link-type="dependency"><path d="M1054.8,613.487 C1089.3,648.987 1149.865,711.311 1188.795,751.371" style="stroke:#181818;stroke-width:1;" fill="none" id="CustCart-to-CustCheckout"/><polygon points="1192.28,754.957,1188.876,745.715,1188.795,751.371,1183.139,751.29,1192.28,754.957" fill="#181818" style="stroke:#181818;stroke-width:1;stroke-linejoin:miter;stroke-miterlimit:10;"/><text x="1134.83" y="689.314" fill="#000" font-size="13" textLength="133.612">proceed to checkout</text></g><!--link CustCheckout to Confirmation--><g class="link" data-entity-1="ent0011" data-entity-2="ent0012" id="lnk25" data-source-line="64" data-link-type="dependency"><path d="M1242.92,824.577 C1258.26,853.657 1278.087,891.244 1294.537,922.434" style="stroke:#181818;stroke-width:1;" fill="none" id="CustCheckout-to-Confirmation"/><polygon points="1296.87,926.857,1296.21,917.03,1294.537,922.434,1289.133,920.762,1296.87,926.857" fill="#181818" style="stroke:#181818;stroke-width:1;stroke-linejoin:miter;stroke-miterlimit:10;"/><text x="1281.43" y="893.304" fill="#000" font-size="13" textLength="82.253">order placed</text></g><!--link CustBrowsing to Account--><g class="link" data-entity-1="ent0009" data-entity-2="ent0013" id="lnk26" data-source-line="65" data-link-type="dependency"><path d="M1190.59,418.427 C1184.68,442.557 1179.67,479.857 1195.01,507.267 C1203.36,522.167 1211.734,531.648 1225.604,541.938" style="stroke:#181818;stroke-width:1;" fill="none" id="CustBrowsing-to-Account"/><polygon points="1229.62,544.917,1224.775,536.342,1225.604,541.938,1220.009,542.767,1229.62,544.917" fill="#181818" style="stroke:#181818;stroke-width:1;stroke-linejoin:miter;stroke-miterlimit:10;"/><text x="1196.01" y="503.334" fill="#000" font-size="13" textLength="85.858">view account</text></g><!--link Account to CustBrowsing--><g class="link" data-entity-1="ent0013" data-entity-2="ent0009" id="lnk27" data-source-line="66" data-link-type="dependency"><path d="M1311.79,544.947 C1305.33,527.347 1296.64,507.117 1286.01,490.267 C1269.01,463.297 1247.644,440.362 1228.644,422.092" style="stroke:#181818;stroke-width:1;" fill="none" id="Account-to-CustBrowsing"/><polygon points="1225.04,418.627,1228.755,427.748,1228.644,422.092,1234.3,421.982,1225.04,418.627" fill="#181818" style="stroke:#181818;stroke-width:1;stroke-linejoin:miter;stroke-miterlimit:10;"/><text x="1295.46" y="503.334" fill="#000" font-size="13" textLength="30.894">back</text></g><!--link AuthFlow to Customer--><g class="link" data-entity-1="ent0005" data-entity-2="ent0008" id="lnk28" data-source-line="69" data-link-type="dependency"><path d="M1518.59,107.417 C1295.75,122.237 1005.51,158.667 933.01,248.187 C913.155,272.712 910.908,307.989 913.745,337.493 C914.454,344.869 915.482,351.884 916.631,358.28 C916.703,358.68 916.775,359.077 916.848,359.472 C916.884,359.669 916.004,354.951 916.041,355.147" style="stroke:#181818;stroke-width:1;" fill="none" id="AuthFlow-to-Customer"/><polygon points="916.957,360.062,919.24,350.482,916.041,355.147,911.375,351.948,916.957,360.062" fill="#181818" style="stroke:#181818;stroke-width:1;stroke-linejoin:miter;stroke-miterlimit:10;"/><text x="1051.51" y="213.754" fill="#000" font-size="13" textLength="136.03">credentials accepted</text></g><!--link GuestCheckout to Confirmation--><g class="link" data-entity-1="ent0004" data-entity-2="ent0012" id="lnk29" data-source-line="70" data-link-type="dependency"><path d="M1996.04,822.597 C1847.43,854.697 1624.467,902.851 1474.817,935.181" style="stroke:#181818;stroke-width:1;" fill="none" id="GuestCheckout-to-Confirmation"/><polygon points="1469.93,936.237,1479.572,938.246,1474.817,935.181,1477.882,930.427,1469.93,936.237" fill="#181818" style="stroke:#181818;stroke-width:1;stroke-linejoin:miter;stroke-miterlimit:10;"/><text x="1707.78" y="893.304" fill="#000" font-size="13" textLength="132.888">order placed (guest)</text></g><!--link Customer to Anon--><g class="link" data-entity-1="ent0008" data-entity-2="ent0001" id="lnk30" data-source-line="72" data-link-type="dependency"><path d="M916.987,365.786 C916.944,365.602 916.901,365.419 916.858,365.234 C916.772,364.865 916.686,364.494 916.6,364.119 C915.915,361.126 915.243,357.967 914.612,354.675 C913.349,348.091 912.244,340.975 911.503,333.583 C908.535,304.017 911.365,270.052 933.01,248.187 C1018.87,161.467 1361.2,201.447 1481.51,221.857 C1591.79,240.567 1710.317,281.359 1803.229,318.452 C1849.684,336.998 1889.736,354.619 1919.15,368.093 C1933.858,374.83 1945.906,380.529 1954.765,384.789 C1956.98,385.854 1958.996,386.829 1960.804,387.708 C1961.708,388.147 1962.56,388.563 1963.359,388.953 C1963.559,389.051 1959.264,386.95 1959.457,387.044" style="stroke:#181818;stroke-width:1;" fill="none" id="Customer-to-Anon"/><polygon points="1963.949,389.241,1957.622,381.694,1959.457,387.044,1954.107,388.88,1963.949,389.241" fill="#181818" style="stroke:#181818;stroke-width:1;stroke-linejoin:miter;stroke-miterlimit:10;"/><text x="1367.385" y="191.254" fill="#000" font-size="13" textLength="83.884">POST /logout</text><text x="1342.448" y="206.387" fill="#000" font-size="13" textLength="133.758">(session invalidated,</text><text x="1346.543" y="221.519" fill="#000" font-size="13" textLength="125.569">token regenerated,</text><text x="1337.51" y="236.652" fill="#000" font-size="13" textLength="143.635">redirect → /catalogue)</text></g><!--link Anon to Tracking--><g class="link" data-entity-1="ent0001" data-entity-2="ent0014" id="lnk31" data-source-line="80" data-link-type="dependency"><path d="M1963.792,397.366 C1962.839,397.741 1961.812,398.149 1960.715,398.589 C1958.52,399.469 1956.044,400.479 1953.319,401.614 C1942.421,406.154 1927.559,412.703 1910.91,421.022 C1877.613,437.659 1837.17,461.377 1807.01,490.267 C1793.04,503.657 1783.372,516.523 1773.502,532.633" style="stroke:#181818;stroke-width:1;" fill="none" id="Anon-to-Tracking"/><polygon points="1770.89,536.897,1779.002,531.312,1773.502,532.633,1772.181,527.133,1770.89,536.897" fill="#181818" style="stroke:#181818;stroke-width:1;stroke-linejoin:miter;stroke-miterlimit:10;"/><text x="1808.01" y="503.334" fill="#000" font-size="13" textLength="171.882">has order number + email</text></g><!--link Customer to Tracking--><g class="link" data-entity-1="ent0008" data-entity-2="ent0014" id="lnk32" data-source-line="81" data-link-type="dependency"><path d="M1526.331,492.276 C1529.112,492.976 1531.9,493.706 1534.692,494.463 C1540.275,495.978 1545.876,497.603 1551.475,499.322 C1562.674,502.76 1573.866,506.572 1584.905,510.628 C1606.983,518.739 1623.898,525.742 1643.563,534.737" style="stroke:#181818;stroke-width:1;" fill="none" id="Customer-to-Tracking"/><polygon points="1648.11,536.817,1641.589,529.436,1643.563,534.737,1638.262,536.711,1648.11,536.817" fill="#181818" style="stroke:#181818;stroke-width:1;stroke-linejoin:miter;stroke-miterlimit:10;"/><text x="1570.78" y="503.334" fill="#000" font-size="13" textLength="196.428">also reachable while signed in</text></g><!--link Customer to AdminGate--><g class="link" data-entity-1="ent0008" data-entity-2="ent0015" id="lnk33" data-source-line="93" data-link-type="dependency"><path d="M916.587,395.889 C916.441,395.919 916.292,395.95 916.143,395.981 C915.843,396.043 915.537,396.107 915.223,396.173 C914.596,396.304 913.942,396.443 913.26,396.588 C911.898,396.879 910.428,397.197 908.857,397.543 C905.715,398.236 902.168,399.042 898.264,399.965 C882.647,403.654 861.315,409.21 837.328,416.881 C789.353,432.222 730.755,456.022 686.01,490.267 C652.26,516.097 628.646,556.971 619.206,574.931" style="stroke:#181818;stroke-width:1;" fill="none" id="Customer-to-AdminGate"/><polygon points="616.88,579.357,624.608,573.251,619.206,574.931,617.527,569.529,616.88,579.357" fill="#181818" style="stroke:#181818;stroke-width:1;stroke-linejoin:miter;stroke-miterlimit:10;"/><text x="687.01" y="503.334" fill="#000" font-size="13" textLength="82.805">visits /admin</text></g><!--link AdminGate to Staff--><g class="link" data-entity-1="ent0015" data-entity-2="ent0016" id="lnk34" data-source-line="94" data-link-type="dependency"><path d="M605,592.427 C579.48,603.347 497.92,638.377 431.01,668.747 C387.58,688.467 344.772,708.424 302.802,728.224" style="stroke:#181818;stroke-width:1;" fill="none" id="AdminGate-to-Staff"/><polygon points="298.28,730.357,308.126,730.134,302.802,728.224,304.713,722.899,298.28,730.357" fill="#181818" style="stroke:#181818;stroke-width:1;stroke-linejoin:miter;stroke-miterlimit:10;"/><text x="432.01" y="681.814" fill="#000" font-size="13" textLength="157.765">has a STAFF_ROLES role</text><text x="468.398" y="696.947" fill="#000" font-size="13" textLength="84.989">and is_active</text></g><!--link AdminGate to PanelDenied--><g class="link" data-entity-1="ent0015" data-entity-2="ent0017" id="lnk35" data-source-line="95" data-link-type="dependency"><path d="M609.72,597.067 C602.17,616.997 586.02,669.257 610.01,700.747 C640.47,740.717 673.92,708.597 719.01,730.747 C736.88,739.527 750.906,749.484 764.946,761.014" style="stroke:#181818;stroke-width:1;" fill="none" id="AdminGate-to-PanelDenied"/><polygon points="768.81,764.187,764.393,755.384,764.946,761.014,759.316,761.566,768.81,764.187" fill="#181818" style="stroke:#181818;stroke-width:1;stroke-linejoin:miter;stroke-miterlimit:10;"/><text x="656.888" y="681.814" fill="#000" font-size="13" textLength="66.796">no role, or</text><text x="611.01" y="696.947" fill="#000" font-size="13" textLength="158.552">deactivated mid-session</text></g><!--link PanelDenied to Customer--><g class="link" data-entity-1="ent0017" data-entity-2="ent0008" id="lnk36" data-source-line="96" data-link-type="dependency"><path d="M793.38,764.437 C789.33,718.437 784.9,615.947 815.01,537.267 C829.12,500.402 855.99,465.174 879.641,438.903 C891.467,425.767 902.488,414.871 910.707,407.128 C912.761,405.193 914.641,403.454 916.314,401.927 C916.523,401.736 913.03,404.912 913.233,404.728" style="stroke:#181818;stroke-width:1;" fill="none" id="PanelDenied-to-Customer"/><polygon points="916.932,401.364,907.582,404.459,913.233,404.728,912.964,410.378,916.932,401.364" fill="#181818" style="stroke:#181818;stroke-width:1;stroke-linejoin:miter;stroke-miterlimit:10;"/><text x="816.01" y="592.574" fill="#000" font-size="13" textLength="116.587">back to storefront</text></g><?plantuml-src XLTTZXkv4NxlKn3U1xSIQJHO6pOiBumezdeHmF0OdacU1Z2exfB47JRP9jbI1CD0ddA087V8FNAKFKc-8jcjbaP9NYIoMLMi-bY_JyK7kr6LrC876SWBANRAgs2TQEmE-x1rjjjifyBOW0s96rUJkmLnv-UtMzKsP4BQ5a_5IbOFP6f1fckyACFMUXBIaV3KIeSBqZMYaTLM6OZ_xM__n1c9vRlFi-lhw-T2cXfo7At9aQbeldSgqCnrclpSyjLNJJsv4dTRvONoKIEeIq-zi7iZEa-pIk97quuq19rSjn3xhQgs0XQngIlIrcn4iFbpOskQiW9YQ_VdGB1n5FP49jBvA_4NScgjg1Po8vNnGLYZSSdCWuVcwOxvdbPNxRRDPYthHfbFqf3-vEnEmHemYH-lVtmnkturktufodMdzOmDce4xAAZt1_7inRDNhruzdqIm70pSKlK0QVsz2UMmjsAjTBHh3Gr4S5sI41YhMicDaureEbYg0OgR0ZWWp6X3LoO46VrLLa4V8guF2b3ODVD7AJA86YO7VrKKGGLDufPDNJjhGeHDidbHIprsAi3V5aLQFbaQQmwDxVmJ8RtWdVXMY4puv8_Exg7L9Xxs6nptIx4Gyqe62VaT2L4wgfMZ2XX8jw70siudP_IjitLN1J__vdMt-Nvs-gljd95wEgmkayaLC09H1Lk145Ph-HM_DMcr8tUOdbyg3nmOCsNm5eqCoXfG0_N6Fo9rQYUhGnHk7nHSxOZ7xTQsBTELbNHX4c5vYnK7785iM2TWN8ZeBzls_WFKsWERUoQ9Fv_aXaQYtx8NmIXH0agVPV_2o_u4j2VxU4U_Ze4h6nALRLfhO2kYYE0sxWARLnk3G85p89muaPJ__jUpb-A75_CVNavUNs28AeaOxm9cEQ02FWvlzqNLnHZ1sUpD2GoohZca6OmJW9Xk1Fi3KIjMHmyx9JpN1pvK4IN1FJhVZpxTmMuJuF6Xzrt-z5uZZOoScpEjYQTnXOFupx3gk4Wl8HfLrvhsd3QHKWwJeuJFj54UJXI5z1iSzqiMvVhrVvC6lMFOiPs3cWknjfeNMHMyqo2f6AWY2_CkOgON9HACrlmodho7ZqykOGBSAgGYssJ5t-RDfS27oDvN9WFnA14yYeiBv6_Jqp_oyqkaHrSVRzbbsRVxFOVEoD717B5z_PYjHJu49BYcfY2LzjFanLVPTG5K60NXJV9mQzOgPucaskW3tp7QZeDmFcQSVuiNVNzC__7c3jMixLPQLSZCzg5hSobPGokKV7E8AVun9rU1lWeQKXpTN6Ov5ftu5PQBLikAwf55owgodGaf2D8QXtaLCsbQ8aDwluVAefHmbSbbecYIJoIeLvLjOn2U4FDPEPczOOJvF_6K4xGiQ09SQbWMYwyTqdGvcHJvqKuJI7QRn_cZFnYe_dTIE7E8o7MAQKfg6RSBgXmDsob26_88mrwJKJBZO8nnFGxK8SmMeaATv62KshD0QX6JnMcE-p-QzbMYA0QnesJmwURsBcOEIBetPKu6YBITrAhc332zDy6YDOJJRSYGoz-6-ltRt_yngkp7D98293WO6CCzUV5qb7BmoZ2kJZ5zbmcBVi7Eb1nY7eLan__QuLgVBKIlkaAM6x4iFxuJr21yyRQRMDIGFS2KCCmCVim1lGs9lUrqQdwZXOBzxy0UXSiy2js8WSzdMZMAd-AOa4SKMtcgeFXzqkdq1Kvqy1QseTULApHdQ6er7KllCJF7BgtbBZH5AUz_uQEVVggsLbNqvarFYuguNWDr9ewU0pCYKpmeqZ77AykO_owYkuaPVtL029bbP8aTRpbP3FJEGhE68eeO8KJvPyyXUdktVF_-o-UR3p_VJWPQVWlblw3fGaSp7VfVN97GvSU4PmxqvS_6TuvojFp9BoDZQfxbu3HmL6xS_C36gGu19LI82ULOkdANFS3tZWmt_Ipk-VMp24QqBtq_Zuy1sqLAf3vZLHnFcAxNWjzSYX4E4Qfxmztr0C8Px-XsI41WC0kNdNjJK-I8Tg0Fc6NhYp7BMQg8THqPpG-jVL6WOmCuQhED3NPwUY4-slxTKyl0YBnNMdBVcyUnU51oRiTeuOW7gVerLmeOoux97M4UCDCa1sOGPu7not72u5ervOycEJalGPnySwVacMTd0Jb_mjjCnvrt6lKmco0LdZie7j-JXcesoyOyzn0d6vR4ViqitB_MocES8hegUDfbV39AAnk09CDqLiDZjesoKaHYCXYg1ZS0y6Nq6CWqa2c6yPPBzzdGVJhICkgWZyFP2lqQQhDSS_SNXxxMgZoQyGI8EGFOhGuitqa3RuHgOybbFuMZTcBsenR6KQmzi2S1rtS3IObS6rZ3rEKSuVWF?></g></svg>