<svg xmlns="http://www.w3.org/2000/svg" xmlns:xlink="http://www.w3.org/1999/xlink" version="1.1" data-diagram-type="CLASS" style="width:3254px;height:906px;background:#FFFFFF;" width="3254px" height="906px" viewBox="0 0 3254 906" zoomAndPan="magnify" preserveAspectRatio="none" contentStyleType="text/css"><?plantuml 1.2026.8?><defs/><g font-family="sans-serif" lengthAdjust="spacing"><g class="title" data-source-line="22"><text x="1368.69" y="22.995" fill="#000" font-size="14" textLength="509.619" font-weight="700">Product variability — two real shapes, as instances (not classes)</text></g><!--cluster Classic Tee — variations, images, specifications--><g class="cluster" data-qualified-name="Classic Tee . variations. images. specifications" id="ent0001" data-source-line="28"><path d="M8.5,78.837 L386.14,78.837 A3.75,3.75 0 0 1 388.64,81.337 L395.64,101.134 L1996.5,101.134 A2.5,2.5 0 0 1 1999,103.634 L1999,675.957 A2.5,2.5 0 0 1 1996.5,678.457 L8.5,678.457 A2.5,2.5 0 0 1 6,675.957 L6,81.337 A2.5,2.5 0 0 1 8.5,78.837" style="stroke:#000;stroke-width:1.5;" fill="none"/><line x1="6" y1="101.134" x2="395.64" y2="101.134" style="stroke:#000;stroke-width:1.5;"/><text x="10" y="93.832" fill="#000" font-size="14" textLength="376.64" font-weight="700">Classic Tee — variations, images, specifications</text></g><!--cluster Plain Mug — no variations beyond one, NO images anywhere--><g class="cluster" data-qualified-name="Plain Mug . no variations beyond one. NO images anywhere" id="ent0050" data-source-line="173"><path d="M2640.5,78.837 L3121.561,78.837 A3.75,3.75 0 0 1 3124.061,81.337 L3131.061,101.134 L3236.5,101.134 A2.5,2.5 0 0 1 3239,103.634 L3239,726.177 A2.5,2.5 0 0 1 3236.5,728.677 L2640.5,728.677 A2.5,2.5 0 0 1 2638,726.177 L2638,81.337 A2.5,2.5 0 0 1 2640.5,78.837" style="stroke:#000;stroke-width:1.5;" fill="none"/><line x1="2638" y1="101.134" x2="3131.061" y2="101.134" style="stroke:#000;stroke-width:1.5;"/><text x="2642" y="93.832" fill="#000" font-size="14" textLength="480.061" font-weight="700">Plain Mug — no variations beyond one, NO images anywhere</text></g><g class="entity" data-qualified-name="Classic Tee . variations. images. specifications.product" id="ent0002" data-source-line="30"><rect x="516.3" y="113.837" width="275.396" height="77.188" fill="#F1F1F1" style="stroke:#181818;stroke-width:0.5;" rx="2.5" ry="2.5"/><text x="589.61" y="128.832" fill="#000" font-size="14" textLength="128.775">product : Products</text><line x1="517.3" y1="134.134" x2="790.696" y2="134.134" style="stroke:#181818;stroke-width:0.5;"/><text x="522.3" y="151.129" fill="#000" font-size="14" textLength="42.314">id = 1</text><text x="522.3" y="167.426" fill="#000" font-size="14" textLength="151.86">name = "Classic Tee"</text><text x="522.3" y="183.723" fill="#000" font-size="14" textLength="152.906">regular_price = 20.00</text><text x="679.656" y="183.723" fill="#000" font-size="14" textLength="106.039" font-weight="700">(the fallback)</text></g><g class="entity" data-qualified-name="Classic Tee . variations. images. specifications.img10" id="ent0003" data-source-line="36"><rect x="275.4" y="609.717" width="213.206" height="44.594" fill="#F1F1F1" style="stroke:#181818;stroke-width:0.5;" rx="2.5" ry="2.5"/><text x="282.4" y="624.712" fill="#000" font-size="14" textLength="199.206">red-front.jpg : ProductImage</text><line x1="276.4" y1="630.014" x2="487.606" y2="630.014" style="stroke:#181818;stroke-width:0.5;"/><text x="281.4" y="647.009" fill="#000" font-size="14" textLength="51.222">id = 10</text></g><g class="entity" data-qualified-name="Classic Tee . variations. images. specifications.img11" id="ent0004" data-source-line="39"><rect x="715.57" y="601.567" width="212.864" height="60.891" fill="#F1F1F1" style="stroke:#181818;stroke-width:0.5;" rx="2.5" ry="2.5"/><text x="722.57" y="616.562" fill="#000" font-size="14" textLength="198.864">red-back.jpg : ProductImage</text><line x1="716.57" y1="621.864" x2="927.434" y2="621.864" style="stroke:#181818;stroke-width:0.5;"/><text x="721.57" y="638.859" fill="#000" font-size="14" textLength="51.222">id = 11</text><text x="721.57" y="655.156" fill="#000" font-size="14" textLength="107.652">(same product)</text></g><g class="entity" data-qualified-name="Classic Tee . variations. images. specifications.img14" id="ent0005" data-source-line="42"><rect x="21.53" y="601.567" width="218.941" height="60.891" fill="#F1F1F1" style="stroke:#181818;stroke-width:0.5;" rx="2.5" ry="2.5"/><text x="28.53" y="616.562" fill="#000" font-size="14" textLength="204.941">red-detail.jpg : ProductImage</text><line x1="22.53" y1="621.864" x2="239.471" y2="621.864" style="stroke:#181818;stroke-width:0.5;"/><text x="27.53" y="638.859" fill="#000" font-size="14" textLength="51.222">id = 14</text><text x="27.53" y="655.156" fill="#000" font-size="14" textLength="107.652">(same product)</text></g><g class="entity" data-qualified-name="Classic Tee . variations. images. specifications.img12" id="ent0006" data-source-line="45"><rect x="1312.89" y="601.567" width="220.213" height="60.891" fill="#F1F1F1" style="stroke:#181818;stroke-width:0.5;" rx="2.5" ry="2.5"/><text x="1319.89" y="616.562" fill="#000" font-size="14" textLength="206.213">blue-front.jpg : ProductImage</text><line x1="1313.89" y1="621.864" x2="1532.103" y2="621.864" style="stroke:#181818;stroke-width:0.5;"/><text x="1318.89" y="638.859" fill="#000" font-size="14" textLength="51.222">id = 12</text><text x="1318.89" y="655.156" fill="#000" font-size="14" textLength="107.652">(same product)</text></g><g class="entity" data-qualified-name="Classic Tee . variations. images. specifications.img15" id="ent0007" data-source-line="48"><rect x="1763.06" y="601.567" width="219.871" height="60.891" fill="#F1F1F1" style="stroke:#181818;stroke-width:0.5;" rx="2.5" ry="2.5"/><text x="1770.06" y="616.562" fill="#000" font-size="14" textLength="205.871">blue-back.jpg : ProductImage</text><line x1="1764.06" y1="621.864" x2="1981.931" y2="621.864" style="stroke:#181818;stroke-width:0.5;"/><text x="1769.06" y="638.859" fill="#000" font-size="14" textLength="51.222">id = 15</text><text x="1769.06" y="655.156" fill="#000" font-size="14" textLength="107.652">(same product)</text></g><g class="entity" data-qualified-name="Classic Tee . variations. images. specifications.img13" id="ent0008" data-source-line="51"><rect x="240.61" y="113.837" width="240.785" height="77.188" fill="#F1F1F1" style="stroke:#181818;stroke-width:0.5;" rx="2.5" ry="2.5"/><text x="258.064" y="128.832" fill="#000" font-size="14" textLength="205.878">size-chart.jpg : ProductImage</text><line x1="241.61" y1="134.134" x2="480.395" y2="134.134" style="stroke:#181818;stroke-width:0.5;"/><text x="246.61" y="151.129" fill="#000" font-size="14" textLength="51.222">id = 13</text><text x="246.61" y="167.426" fill="#000" font-size="14" textLength="228.785" font-weight="700">belongs to no variation, ever</text><text x="246.61" y="183.723" fill="#000" font-size="14" textLength="107.652">(same product)</text></g><g class="entity" data-qualified-name="Classic Tee . variations. images. specifications.v100" id="ent0009" data-source-line="56"><rect x="354.14" y="340.087" width="285.725" height="77.188" fill="#F1F1F1" style="stroke:#181818;stroke-width:0.5;" rx="2.5" ry="2.5"/><text x="394.446" y="355.082" fill="#000" font-size="14" textLength="205.112">TEE-RED-S : ProductVariation</text><line x1="355.14" y1="360.384" x2="638.865" y2="360.384" style="stroke:#181818;stroke-width:0.5;"/><text x="360.14" y="377.379" fill="#000" font-size="14" textLength="60.129">id = 100</text><text x="360.14" y="393.676" fill="#000" font-size="14" textLength="132.371">sku = "TEE-RED-S"</text><text x="360.14" y="409.973" fill="#000" font-size="14" textLength="116.389">price_override =</text><text x="480.979" y="409.973" fill="#00F" font-size="14" textLength="25.525">null</text><text x="506.504" y="409.973" fill="#000" font-size="14"> </text><text x="510.954" y="409.973" fill="#000" font-size="14" textLength="122.91" font-weight="700">(inherits 20.00)</text></g><g class="entity" data-qualified-name="Classic Tee . variations. images. specifications.v101" id="ent0010" data-source-line="61"><rect x="979.46" y="340.087" width="267.076" height="77.188" fill="#F1F1F1" style="stroke:#181818;stroke-width:0.5;" rx="2.5" ry="2.5"/><text x="1008.846" y="355.082" fill="#000" font-size="14" textLength="208.305">TEE-RED-M : ProductVariation</text><line x1="980.46" y1="360.384" x2="1245.536" y2="360.384" style="stroke:#181818;stroke-width:0.5;"/><text x="985.46" y="377.379" fill="#000" font-size="14" textLength="60.129">id = 101</text><text x="985.46" y="393.676" fill="#000" font-size="14" textLength="135.563">sku = "TEE-RED-M"</text><text x="985.46" y="409.973" fill="#000" font-size="14" textLength="160.918">price_override = 22.00</text><text x="1150.828" y="409.973" fill="#000" font-size="14" textLength="89.708" font-weight="700">(own price)</text></g><g class="entity" data-qualified-name="Classic Tee . variations. images. specifications.v102" id="ent0011" data-source-line="66"><rect x="1281.87" y="348.237" width="226.256" height="60.891" fill="#F1F1F1" style="stroke:#181818;stroke-width:0.5;" rx="2.5" ry="2.5"/><text x="1288.87" y="363.232" fill="#000" font-size="14" textLength="212.256">TEE-BLUE-S : ProductVariation</text><line x1="1282.87" y1="368.534" x2="1507.126" y2="368.534" style="stroke:#181818;stroke-width:0.5;"/><text x="1287.87" y="385.529" fill="#000" font-size="14" textLength="60.129">id = 102</text><text x="1287.87" y="401.826" fill="#000" font-size="14" textLength="139.515">sku = "TEE-BLUE-S"</text></g><g class="entity" data-qualified-name="Classic Tee . variations. images. specifications.v103" id="ent0012" data-source-line="70"><rect x="1543.28" y="348.237" width="229.448" height="60.891" fill="#F1F1F1" style="stroke:#181818;stroke-width:0.5;" rx="2.5" ry="2.5"/><text x="1550.28" y="363.232" fill="#000" font-size="14" textLength="215.448">TEE-BLUE-M : ProductVariation</text><line x1="1544.28" y1="368.534" x2="1771.728" y2="368.534" style="stroke:#181818;stroke-width:0.5;"/><text x="1549.28" y="385.529" fill="#000" font-size="14" textLength="60.129">id = 103</text><text x="1549.28" y="401.826" fill="#000" font-size="14" textLength="142.707">sku = "TEE-BLUE-M"</text></g><g class="entity" data-qualified-name="Classic Tee . variations. images. specifications.valRed" id="ent0013" data-source-line="75"><rect x="523.78" y="613.867" width="156.44" height="36.297" fill="#F1F1F1" style="stroke:#181818;stroke-width:0.5;" rx="2.5" ry="2.5"/><text x="530.78" y="628.862" fill="#000" font-size="14" textLength="142.44">Red : AttributeValue</text><line x1="524.78" y1="634.164" x2="679.22" y2="634.164" style="stroke:#181818;stroke-width:0.5;"/></g><g class="entity" data-qualified-name="Classic Tee . variations. images. specifications.valBlue" id="ent0014" data-source-line="76"><rect x="1567.9" y="613.867" width="160.193" height="36.297" fill="#F1F1F1" style="stroke:#181818;stroke-width:0.5;" rx="2.5" ry="2.5"/><text x="1574.9" y="628.862" fill="#000" font-size="14" textLength="146.193">Blue : AttributeValue</text><line x1="1568.9" y1="634.164" x2="1727.093" y2="634.164" style="stroke:#181818;stroke-width:0.5;"/></g><g class="entity" data-qualified-name="Classic Tee . variations. images. specifications.valS" id="ent0015" data-source-line="77"><rect x="962.95" y="613.867" width="138.1" height="36.297" fill="#F1F1F1" style="stroke:#181818;stroke-width:0.5;" rx="2.5" ry="2.5"/><text x="969.95" y="628.862" fill="#000" font-size="14" textLength="124.1">S : AttributeValue</text><line x1="963.95" y1="634.164" x2="1100.05" y2="634.164" style="stroke:#181818;stroke-width:0.5;"/></g><g class="entity" data-qualified-name="Classic Tee . variations. images. specifications.valM" id="ent0016" data-source-line="78"><rect x="1136.35" y="613.867" width="141.292" height="36.297" fill="#F1F1F1" style="stroke:#181818;stroke-width:0.5;" rx="2.5" ry="2.5"/><text x="1143.35" y="628.862" fill="#000" font-size="14" textLength="127.292">M : AttributeValue</text><line x1="1137.35" y1="634.164" x2="1276.642" y2="634.164" style="stroke:#181818;stroke-width:0.5;"/></g><g class="entity" data-qualified-name="Classic Tee . variations. images. specifications.spec1" id="ent0017" data-source-line="80"><rect x="675.13" y="348.237" width="269.746" height="60.891" fill="#F1F1F1" style="stroke:#181818;stroke-width:0.5;" rx="2.5" ry="2.5"/><text x="682.13" y="363.232" fill="#000" font-size="14" textLength="255.746">spec: Material : ProductSpecification</text><line x1="676.13" y1="368.534" x2="943.876" y2="368.534" style="stroke:#181818;stroke-width:0.5;"/><text x="681.13" y="385.529" fill="#000" font-size="14" textLength="130.088">name = "Material"</text><text x="681.13" y="401.826" fill="#000" font-size="14" textLength="162.982">value = "100% Cotton"</text></g><g class="entity" data-qualified-name="Classic Tee . variations. images. specifications.spec2" id="ent0018" data-source-line="84"><rect x="1294.2" y="113.837" width="245.595" height="77.188" fill="#F1F1F1" style="stroke:#181818;stroke-width:0.5;" rx="2.5" ry="2.5"/><text x="1301.2" y="128.832" fill="#000" font-size="14" textLength="231.595">spec: Care : ProductSpecification</text><line x1="1295.2" y1="134.134" x2="1538.795" y2="134.134" style="stroke:#181818;stroke-width:0.5;"/><text x="1300.2" y="151.129" fill="#000" font-size="14" textLength="105.937">name = "Care"</text><text x="1300.2" y="167.426" fill="#000" font-size="14" textLength="204.49">value = "Machine wash cold"</text><text x="1300.2" y="183.723" fill="#000" font-size="14" textLength="107.652">(same product)</text></g><g class="entity" data-qualified-name="Plain Mug . no variations beyond one. NO images anywhere.product2" id="ent0051" data-source-line="175"><rect x="2654" y="113.837" width="155.999" height="77.188" fill="#F1F1F1" style="stroke:#181818;stroke-width:0.5;" rx="2.5" ry="2.5"/><text x="2667.612" y="128.832" fill="#000" font-size="14" textLength="128.775">product : Products</text><line x1="2655" y1="134.134" x2="2808.999" y2="134.134" style="stroke:#181818;stroke-width:0.5;"/><text x="2660" y="151.129" fill="#000" font-size="14" textLength="42.314">id = 2</text><text x="2660" y="167.426" fill="#000" font-size="14" textLength="141.176">name = "Plain Mug"</text><text x="2660" y="183.723" fill="#000" font-size="14" textLength="143.999">regular_price = 8.00</text></g><g class="entity" data-qualified-name="Plain Mug . no variations beyond one. NO images anywhere.v200" id="ent0052" data-source-line="181"><rect x="2655.41" y="340.087" width="223.173" height="77.188" fill="#F1F1F1" style="stroke:#181818;stroke-width:0.5;" rx="2.5" ry="2.5"/><text x="2662.41" y="355.082" fill="#000" font-size="14" textLength="209.173">MUG-PLAIN : ProductVariation</text><line x1="2656.41" y1="360.384" x2="2877.583" y2="360.384" style="stroke:#181818;stroke-width:0.5;"/><text x="2661.41" y="377.379" fill="#000" font-size="14" textLength="60.129">id = 200</text><text x="2661.41" y="393.676" fill="#000" font-size="14" textLength="136.432">sku = "MUG-PLAIN"</text><text x="2661.41" y="409.973" fill="#000" font-size="14" textLength="116.389">price_override =</text><text x="2782.249" y="409.973" fill="#00F" font-size="14" textLength="25.525">null</text></g><g class="entity" data-qualified-name="Plain Mug . no variations beyond one. NO images anywhere.GMN54" id="ent0055" data-source-line="190"><path d="M2845.1,117.157 L2845.1,148.427 L2810.45,152.427 L2845.1,156.427 L2845.1,187.688 A0,0 0 0 0 2845.1,187.688 L3222.895,187.688 A0,0 0 0 0 3222.895,187.688 L3222.895,127.157 L3212.895,117.157 L2845.1,117.157 A0,0 0 0 0 2845.1,117.157" style="stroke:#181818;stroke-width:0.5;" fill="#FEFFDD"/><path d="M3212.895,117.157 L3212.895,127.157 L3222.895,127.157 L3212.895,117.157" style="stroke:#181818;stroke-width:0.5;" fill="#FEFFDD"/><text x="2851.1" y="134.224" fill="#000" font-size="13" textLength="356.795" font-weight="700">Zero rows in product_images for this product_id.</text><text x="2851.1" y="149.357" fill="#000" font-size="13" textLength="350.524">Legal — write-rules/product.md records it as such. No</text><text x="2851.1" y="164.489" fill="#000" font-size="13" textLength="355.964">AttributeValue pivots either: a single-variation product</text><text x="2851.1" y="179.622" fill="#000" font-size="13" textLength="190.5">needs no differentiating axis.</text></g><g class="entity" data-qualified-name="Plain Mug . no variations beyond one. NO images anywhere.GMN57" id="ent0058" data-source-line="197"><path d="M2653.75,551.347 L2653.75,712.675 A0,0 0 0 0 2653.75,712.675 L2980.244,712.675 A0,0 0 0 0 2980.244,712.675 L2980.244,561.347 L2970.244,551.347 L2805.06,551.347 L2774.54,417.587 L2797.06,551.347 L2653.75,551.347 A0,0 0 0 0 2653.75,551.347" style="stroke:#181818;stroke-width:0.5;" fill="#FEFFDD"/><path d="M2970.244,551.347 L2970.244,561.347 L2980.244,561.347 L2970.244,551.347" style="stroke:#181818;stroke-width:0.5;" fill="#FEFFDD"/><text x="2659.75" y="568.414" fill="#000" font-size="13" textLength="283.677" font-weight="700">ResolveVariationImage::urlOrDefault()</text><text x="2659.75" y="583.547" fill="#000" font-size="13" textLength="241.604">walks the real fallback chain and hits</text><text x="2659.75" y="598.679" fill="#000" font-size="13" textLength="75.315">every rung:</text><text x="2659.75" y="613.812" fill="#000" font-size="13" textLength="189.37">1. own gallery — empty, skip</text><text x="2659.75" y="628.945" fill="#000" font-size="13" textLength="305.494">2. product's is_main image — none exists, skip</text><text x="2659.75" y="644.078" fill="#000" font-size="13" textLength="240.373">3. images/default-product.png — the</text><text x="2672.147" y="659.211" fill="#000" font-size="13" textLength="242.715">checked-in placeholder, shipped with</text><text x="2672.147" y="674.343" fill="#000" font-size="13" textLength="228.7">the app, an admin never uploads it</text><text x="2659.75" y="689.476" fill="#000" font-size="13" textLength="217.388">Never returns null to a caller that</text><text x="2659.75" y="704.609" fill="#000" font-size="13" textLength="180.292">wants something to render.</text></g><g class="entity" data-qualified-name="GMN38" id="ent0039" data-source-line="129"><path d="M441.01,775.677 L441.01,891.607 A0,0 0 0 0 441.01,891.607 L762.99,891.607 A0,0 0 0 0 762.99,891.607 L762.99,785.677 L752.99,775.677 L606,775.677 L602,650.377 L598,775.677 L441.01,775.677 A0,0 0 0 0 441.01,775.677" style="stroke:#181818;stroke-width:0.5;" fill="#FEFFDD"/><path d="M752.99,775.677 L752.99,785.677 L762.99,785.677 L752.99,775.677" style="stroke:#181818;stroke-width:0.5;" fill="#FEFFDD"/><text x="447.01" y="792.744" fill="#000" font-size="13" textLength="290.875" font-weight="700">The one distinction worth holding onto:</text><text x="447.01" y="807.877" fill="#000" font-size="13" textLength="283.137">Red and S are BOTH AttributeValue rows —</text><text x="447.01" y="823.009" fill="#000" font-size="13" textLength="300.727">one vocabulary table, used by two DIFFERENT</text><text x="447.01" y="838.142" fill="#000" font-size="13" textLength="285.892">pivots for two DIFFERENT questions. A class</text><text x="447.01" y="853.275" fill="#000" font-size="13" textLength="300.98">diagram would show one association and hide</text><text x="447.01" y="868.408" fill="#000" font-size="13" textLength="278.522">this; the green vs. blue edges here are the</text><text x="447.01" y="883.541" fill="#000" font-size="13" textLength="232.007">same table used twice, on purpose.</text></g><g class="entity" data-qualified-name="GMN41" id="ent0042" data-source-line="139"><path d="M2014.61,313.157 L2014.61,444.219 L2291.382,444.219 L2291.382,323.157 L2281.382,313.157 L2014.61,313.157" style="stroke:#181818;stroke-width:0.5;" fill="#FEFFDD"/><path d="M2281.382,313.157 L2281.382,323.157 L2291.382,323.157 L2281.382,313.157" style="stroke:#181818;stroke-width:1;" fill="#FEFFDD"/><text x="2020.61" y="330.224" fill="#000" font-size="13" textLength="160.723" font-weight="700">Computed, not stored</text><text x="2185.465" y="330.224" fill="#000" font-size="13" textLength="55.371">— this is</text><text x="2020.61" y="345.357" fill="#000" font-size="13" textLength="204.363">the other thing a class diagram</text><text x="2020.61" y="360.489" fill="#000" font-size="13" textLength="218.283">cannot show. price_override=null</text><text x="2020.61" y="375.622" fill="#000" font-size="13" textLength="255.772">means ResolveVariationPrice::current()</text><text x="2020.61" y="390.755" fill="#000" font-size="13" textLength="240.373">returns the PRODUCT's regular_price</text><text x="2020.61" y="405.888" fill="#000" font-size="13" textLength="239.364">(20.00) at read time. Nothing here is</text><text x="2020.61" y="421.021" fill="#000" font-size="13" textLength="221.654">copied or kept in sync; there is no</text><text x="2020.61" y="436.153" fill="#000" font-size="13" textLength="163.236">second value to go stale.</text></g><g class="entity" data-qualified-name="GMN44" id="ent0045" data-source-line="150"><path d="M2326.07,298.017 L2326.07,459.345 L2619.924,459.345 L2619.924,308.017 L2609.924,298.017 L2326.07,298.017" style="stroke:#181818;stroke-width:0.5;" fill="#FEFFDD"/><path d="M2609.924,298.017 L2609.924,308.017 L2619.924,308.017 L2609.924,298.017" style="stroke:#181818;stroke-width:1;" fill="#FEFFDD"/><text x="2332.07" y="315.084" fill="#000" font-size="13" textLength="178.026" font-weight="700">A third, unrelated table.</text><text x="2514.229" y="315.084" fill="#000" font-size="13" textLength="59.395">Free-text</text><text x="2332.07" y="330.217" fill="#000" font-size="13" textLength="272.854">name/value on the PRODUCT, not a pivot,</text><text x="2332.07" y="345.349" fill="#000" font-size="13" textLength="218.08">not per-variation, not filterable —</text><text x="2332.07" y="360.482" fill="#000" font-size="13" textLength="271.927">"Cotton", "cotton" and "100% Cotton" are</text><text x="2332.07" y="375.615" fill="#000" font-size="13" textLength="257.042">three ungroupable values no query can</text><text x="2332.07" y="390.748" fill="#000" font-size="13" textLength="233.232">filter on. The right home for prose a</text><text x="2332.07" y="405.881" fill="#000" font-size="13" textLength="266.462">customer reads but nobody searches by.</text><text x="2332.07" y="421.013" fill="#000" font-size="13" textLength="258.007">See explanation/product-variability.md,</text><text x="2332.07" y="436.146" fill="#000" font-size="13" textLength="257.34">"Why not product_specifications for the</text><text x="2332.07" y="451.279" fill="#000" font-size="13" textLength="110.417">descriptive half."</text></g><g class="entity" data-qualified-name="GMN47" id="ent0048" data-source-line="163"><path d="M2014.98,117.157 L2014.98,187.688 L2215.016,187.688 L2215.016,127.157 L2205.016,117.157 L2014.98,117.157" style="stroke:#181818;stroke-width:0.5;" fill="#FEFFDD"/><path d="M2205.016,117.157 L2205.016,127.157 L2215.016,127.157 L2205.016,117.157" style="stroke:#181818;stroke-width:1;" fill="#FEFFDD"/><text x="2020.98" y="134.224" fill="#000" font-size="13" textLength="166.423">Product-level-only image.</text><text x="2020.98" y="149.357" fill="#000" font-size="13" textLength="172.428">Normal, not orphaned — a</text><text x="2020.98" y="164.489" fill="#000" font-size="13" textLength="143.184">variation never has to</text><text x="2020.98" y="179.622" fill="#000" font-size="13" textLength="179.036">claim every product image.</text></g><!--reverse link product to v100--><g class="link" data-entity-1="ent0002" data-entity-2="ent0009" id="lnk19" data-source-line="89" data-link-type="composition"><path d="M617.568,201.01 C610.348,210.59 609.92,211.337 603,221.017 C574.45,260.957 543.1,307.677 521.95,339.637" style="stroke:#181818;stroke-width:1;" fill="none" id="product-backto-v100" codeLine="89"/><polygon points="624.79,191.427,617.984,193.811,617.568,201.01,624.373,198.626,624.79,191.427" fill="#181818" style="stroke:#181818;stroke-width:1;stroke-linejoin:miter;stroke-miterlimit:10;"/><text x="604" y="249.084" fill="#000" font-size="13" textLength="91.368">has variations</text><text x="611.312" y="211.206" fill="#000" font-size="13">1</text><text x="517.442" y="329.006" fill="#000" font-size="13">4</text></g><!--reverse link product to img10--><g class="link" data-entity-1="ent0002" data-entity-2="ent0003" id="lnk20" data-source-line="90" data-link-type="composition"><path d="M504.325,189.854 C391.605,219.134 254.86,259.837 206,298.017 C127.09,359.677 114.5,393.057 87,489.347 C83.09,503.027 77.85,510.457 87,521.347 C136.62,580.437 186.13,523.277 258,551.347 C294.23,565.497 331.15,590.927 355.17,609.257" style="stroke:#181818;stroke-width:1;" fill="none" id="product-backto-img10" codeLine="90"/><polygon points="515.94,186.837,509.127,184.474,504.325,189.854,511.138,192.217,515.94,186.837" fill="#181818" style="stroke:#181818;stroke-width:1;stroke-linejoin:miter;stroke-miterlimit:10;"/><text x="222.501" y="375.754" fill="#000" font-size="13" textLength="98.338">owns the ONLY</text><text x="207" y="390.887" fill="#000" font-size="13" textLength="129.34">copies of these files</text><text x="500.179" y="185.379" fill="#000" font-size="13">1</text><text x="339.304" y="598.587" fill="#000" font-size="13">5</text></g><!--reverse link product to spec1--><g class="link" data-entity-1="ent0002" data-entity-2="ent0017" id="lnk21" data-source-line="96" data-link-type="composition"><path d="M687.313,201.317 C718.093,245.557 761.38,307.787 789.4,348.067" style="stroke:#181818;stroke-width:1;" fill="none" id="product-backto-spec1" codeLine="96"/><polygon points="680.46,191.467,680.603,198.677,687.313,201.317,687.17,194.108,680.46,191.467" fill="#181818" style="stroke:#181818;stroke-width:1;stroke-linejoin:miter;stroke-miterlimit:10;"/><text x="733" y="249.084" fill="#000" font-size="13" textLength="115.87">has specifications</text><text x="676.062" y="210.961" fill="#000" font-size="13">1</text><text x="776.354" y="337.286" fill="#000" font-size="13">2</text></g><!--link v100 to valRed--><g class="link" data-entity-1="ent0009" data-entity-2="ent0013" id="lnk22" data-source-line="100" data-link-type="dependency"><path d="M533.86,417.707 C550.94,437.527 569.88,463.067 581,489.347 C598.83,531.477 601.825,581.227 602.125,608.697" style="stroke:#008000;stroke-width:1;" fill="none" id="v100-to-valRed" codeLine="100"/><polygon points="602.18,613.697,606.081,604.654,602.125,608.697,598.082,604.741,602.18,613.697" fill="#008000" style="stroke:#008000;stroke-width:1;stroke-linejoin:miter;stroke-miterlimit:10;"/><text x="591.84" y="502.414" fill="#000" font-size="13" textLength="219.483">attribute_value_product_variation</text><text x="666.79" y="517.547" fill="#000" font-size="13" textLength="69.583">(IDENTITY)</text></g><!--link v100 to valS--><g class="link" data-entity-1="ent0009" data-entity-2="ent0015" id="lnk23" data-source-line="101" data-link-type="dependency"><path d="M559.37,417.627 C588.33,433.357 623.84,450.067 658,459.347 C703.26,471.647 1047.04,455.027 1079,489.347 C1112.02,524.807 1074.894,580.193 1050.774,609.553" style="stroke:#008000;stroke-width:1;" fill="none" id="v100-to-valS" codeLine="101"/><polygon points="1047.6,613.417,1056.404,609.002,1050.774,609.553,1050.222,603.924,1047.6,613.417" fill="#008000" style="stroke:#008000;stroke-width:1;stroke-linejoin:miter;stroke-miterlimit:10;"/></g><!--link v101 to valRed--><g class="link" data-entity-1="ent0010" data-entity-2="ent0013" id="lnk24" data-source-line="102" data-link-type="dependency"><path d="M1115.21,417.507 C1114.86,450.227 1108.52,496.137 1079,521.347 C1014.42,576.507 776.69,519.407 698,551.347 C664.69,564.877 637.572,590.656 620.262,609.706" style="stroke:#008000;stroke-width:1;" fill="none" id="v101-to-valRed" codeLine="102"/><polygon points="616.9,613.407,625.913,609.436,620.262,609.706,619.992,604.056,616.9,613.407" fill="#008000" style="stroke:#008000;stroke-width:1;stroke-linejoin:miter;stroke-miterlimit:10;"/></g><!--link v101 to valM--><g class="link" data-entity-1="ent0010" data-entity-2="ent0016" id="lnk25" data-source-line="103" data-link-type="dependency"><path d="M1153.85,417.307 C1172.15,436.837 1191.85,462.257 1202,489.347 C1217.89,531.757 1214.192,581.432 1210.482,608.802" style="stroke:#008000;stroke-width:1;" fill="none" id="v101-to-valM" codeLine="103"/><polygon points="1209.81,613.757,1214.983,605.376,1210.482,608.802,1207.055,604.301,1209.81,613.757" fill="#008000" style="stroke:#008000;stroke-width:1;stroke-linejoin:miter;stroke-miterlimit:10;"/></g><!--link v102 to valBlue--><g class="link" data-entity-1="ent0011" data-entity-2="ent0014" id="lnk26" data-source-line="104" data-link-type="dependency"><path d="M1390.95,409.597 C1388.43,441.517 1389.91,491.497 1418,521.347 C1459.52,565.477 1496.56,524.737 1551,551.347 C1583.11,567.047 1610.387,591.759 1628.357,610.059" style="stroke:#008000;stroke-width:1;" fill="none" id="v102-to-valBlue" codeLine="104"/><polygon points="1631.86,613.627,1628.408,604.403,1628.357,610.059,1622.7,610.008,1631.86,613.627" fill="#008000" style="stroke:#008000;stroke-width:1;stroke-linejoin:miter;stroke-miterlimit:10;"/></g><!--link v102 to valS--><g class="link" data-entity-1="ent0011" data-entity-2="ent0015" id="lnk27" data-source-line="105" data-link-type="dependency"><path d="M1354.98,409.357 C1313.42,439.497 1245.93,486.557 1184,521.347 C1156.26,536.937 1145.49,533.727 1119,551.347 C1091.72,569.497 1067.995,592.453 1051.465,609.843" style="stroke:#008000;stroke-width:1;" fill="none" id="v102-to-valS" codeLine="105"/><polygon points="1048.02,613.467,1057.12,609.699,1051.465,609.843,1051.321,604.188,1048.02,613.467" fill="#008000" style="stroke:#008000;stroke-width:1;stroke-linejoin:miter;stroke-miterlimit:10;"/></g><!--link v103 to valBlue--><g class="link" data-entity-1="ent0012" data-entity-2="ent0014" id="lnk28" data-source-line="106" data-link-type="dependency"><path d="M1651.11,409.277 C1646.36,431.237 1640.48,461.977 1638,489.347 C1633.96,534.037 1639.938,581.848 1644.178,608.608" style="stroke:#008000;stroke-width:1;" fill="none" id="v103-to-valBlue" codeLine="106"/><polygon points="1644.96,613.547,1647.502,604.032,1644.178,608.608,1639.601,605.284,1644.96,613.547" fill="#008000" style="stroke:#008000;stroke-width:1;stroke-linejoin:miter;stroke-miterlimit:10;"/></g><!--link v103 to valM--><g class="link" data-entity-1="ent0012" data-entity-2="ent0016" id="lnk29" data-source-line="107" data-link-type="dependency"><path d="M1615.3,409.537 C1590.21,426.027 1557.34,445.837 1526,459.347 C1480.25,479.067 1460.83,463.907 1418,489.347 C1400.98,499.467 1403.8,510.857 1387,521.347 C1350.52,544.127 1332.21,529.777 1295,551.347 C1266.12,568.097 1241.921,591.854 1225.571,609.764" style="stroke:#008000;stroke-width:1;" fill="none" id="v103-to-valM" codeLine="107"/><polygon points="1222.2,613.457,1231.222,609.507,1225.571,609.764,1225.314,604.113,1222.2,613.457" fill="#008000" style="stroke:#008000;stroke-width:1;stroke-linejoin:miter;stroke-miterlimit:10;"/></g><!--link v100 to img10--><g class="link" data-entity-1="ent0009" data-entity-2="ent0003" id="lnk30" data-source-line="111" data-link-type="dependency"><path d="M421.85,417.777 C395.02,435.567 367.79,459.497 353,489.347 C333.5,528.717 351.894,576.026 366.954,604.836" style="stroke:#00F;stroke-width:1;" fill="none" id="v100-to-img10" codeLine="111"/><polygon points="369.27,609.267,368.646,599.438,366.954,604.836,361.556,603.144,369.27,609.267" fill="#00F" style="stroke:#00F;stroke-width:1;stroke-linejoin:miter;stroke-miterlimit:10;"/><text x="354" y="502.414" fill="#000" font-size="13" textLength="218.048">product_image_product_variation</text><text x="391.505" y="517.547" fill="#000" font-size="13" textLength="143.038">(APPEARANCE) pos=1</text></g><!--link v100 to img11--><g class="link" data-entity-1="ent0009" data-entity-2="ent0004" id="lnk31" data-source-line="112" data-link-type="dependency"><path d="M559.8,417.657 C588.7,433.287 624.05,449.917 658,459.347 C735.77,480.967 965.33,429.957 1020,489.347 C1029.63,499.817 1027.97,509.577 1020,521.347 C999.87,551.077 976.88,534.847 945,551.347 C916.87,565.907 891.135,582.322 867.875,598.252" style="stroke:#00F;stroke-width:1;" fill="none" id="v100-to-img11" codeLine="112"/><polygon points="863.75,601.077,873.436,599.292,867.875,598.252,868.915,592.691,863.75,601.077" fill="#00F" style="stroke:#00F;stroke-width:1;stroke-linejoin:miter;stroke-miterlimit:10;"/><text x="1027.62" y="509.914" fill="#000" font-size="13" textLength="42.142">pos=2</text></g><!--link v100 to img14--><g class="link" data-entity-1="ent0009" data-entity-2="ent0005" id="lnk32" data-source-line="113" data-link-type="dependency"><path d="M354.1,417.747 C244.42,447.287 110.99,484.087 107,489.347 C82.45,521.757 96.69,565.837 111.88,596.847" style="stroke:#00F;stroke-width:1;" fill="none" id="v100-to-img14" codeLine="113"/><polygon points="114.08,601.337,113.713,591.495,111.88,596.847,106.529,595.014,114.08,601.337" fill="#00F" style="stroke:#00F;stroke-width:1;stroke-linejoin:miter;stroke-miterlimit:10;"/><text x="108" y="509.914" fill="#000" font-size="13" textLength="228.192">pos=3 (3rd image, same variation)</text></g><!--link v101 to img10--><g class="link" data-entity-1="ent0010" data-entity-2="ent0003" id="lnk33" data-source-line="117" data-link-type="dependency"><path d="M1046.45,417.687 C1020.54,431.707 990.31,447.147 962,459.347 C924.05,475.707 911.53,472.057 874,489.347 C848.66,501.027 846.52,512.707 820,521.347 C686.71,564.797 638.48,505.507 506,551.347 C468.76,564.237 435.372,587.345 411.552,606.185" style="stroke:#00F;stroke-width:1;" fill="none" id="v101-to-img10" codeLine="117"/><polygon points="407.63,609.287,417.17,606.841,411.552,606.185,412.208,600.566,407.63,609.287" fill="#00F" style="stroke:#00F;stroke-width:1;stroke-linejoin:miter;stroke-miterlimit:10;"/><text x="875" y="509.914" fill="#000" font-size="13" textLength="42.142">pos=1</text><text x="921.274" y="509.914" fill="#000" font-size="13" textLength="90.137" font-weight="700">(reused file)</text></g><!--link v101 to img11--><g class="link" data-entity-1="ent0010" data-entity-2="ent0004" id="lnk34" data-source-line="118" data-link-type="dependency"><path d="M1127,417.597 C1135.93,449.027 1141.85,493.007 1118,521.347 C1067.75,581.057 1017.66,522.897 945,551.347 C914.08,563.457 886.757,580.953 863.437,598.113" style="stroke:#00F;stroke-width:1;" fill="none" id="v101-to-img11" codeLine="118"/><polygon points="859.41,601.077,869.03,598.965,863.437,598.113,864.288,592.521,859.41,601.077" fill="#00F" style="stroke:#00F;stroke-width:1;stroke-linejoin:miter;stroke-miterlimit:10;"/><text x="1133.3" y="509.914" fill="#000" font-size="13" textLength="42.142">pos=2</text></g><!--link v102 to img12--><g class="link" data-entity-1="ent0011" data-entity-2="ent0006" id="lnk35" data-source-line="123" data-link-type="dependency"><path d="M1373.16,409.377 C1354.91,437.937 1333.69,482.387 1346,521.347 C1355.53,551.517 1373.411,576.785 1391.131,597.405" style="stroke:#00F;stroke-width:1;" fill="none" id="v102-to-img12" codeLine="123"/><polygon points="1394.39,601.197,1391.558,591.764,1391.131,597.405,1385.49,596.978,1394.39,601.197" fill="#00F" style="stroke:#00F;stroke-width:1;stroke-linejoin:miter;stroke-miterlimit:10;"/><text x="1347" y="509.914" fill="#000" font-size="13" textLength="42.142">pos=1</text></g><!--link v103 to img12--><g class="link" data-entity-1="ent0012" data-entity-2="ent0006" id="lnk36" data-source-line="124" data-link-type="dependency"><path d="M1613.73,409.457 C1588.67,425.527 1556.35,444.947 1526,459.347 C1490.18,476.347 1466.94,458.537 1442,489.347 C1416.47,520.887 1415.347,564.947 1418.197,596.267" style="stroke:#00F;stroke-width:1;" fill="none" id="v103-to-img12" codeLine="124"/><polygon points="1418.65,601.247,1421.818,591.921,1418.197,596.267,1413.851,592.646,1418.65,601.247" fill="#00F" style="stroke:#00F;stroke-width:1;stroke-linejoin:miter;stroke-miterlimit:10;"/><text x="1443" y="509.914" fill="#000" font-size="13" textLength="42.142">pos=1</text><text x="1489.274" y="509.914" fill="#000" font-size="13" textLength="138.779" font-weight="700">(shared with v102)</text></g><!--link v103 to img15--><g class="link" data-entity-1="ent0012" data-entity-2="ent0007" id="lnk37" data-source-line="125" data-link-type="dependency"><path d="M1683.51,409.507 C1724.89,457.877 1802.92,549.087 1844.28,597.437" style="stroke:#00F;stroke-width:1;" fill="none" id="v103-to-img15" codeLine="125"/><polygon points="1847.53,601.237,1844.719,591.798,1844.28,597.437,1838.64,596.998,1847.53,601.237" fill="#00F" style="stroke:#00F;stroke-width:1;stroke-linejoin:miter;stroke-miterlimit:10;"/><text x="1779.37" y="509.914" fill="#000" font-size="13" textLength="307.049">pos=2 (v103 only — v102 does NOT show this)</text></g><!--link v100 to GMN41--><g class="link" data-entity-1="ent0009" data-entity-2="ent0042" id="lnk43" data-source-line="139" data-link-type="association"><path d="M533.44,339.807 C566.81,307.267 619.42,263.247 675.5,244.517 C813.14,198.557 1844.31,197.237 1981.5,244.517 C2021.89,258.437 2060.03,286.217 2090.05,312.897" style="stroke:#181818;stroke-width:1;stroke-dasharray:7,7;" fill="none" id="v100-GMN41"/></g><!--link spec1 to GMN44--><g class="link" data-entity-1="ent0017" data-entity-2="ent0045" id="lnk46" data-source-line="150" data-link-type="association"><path d="M836.58,347.887 C867.18,315.027 920.84,264.927 979.5,244.517 C1117.18,196.627 2153.04,198.907 2291.5,244.517 C2325.55,255.737 2358.45,276.077 2386.67,297.587" style="stroke:#181818;stroke-width:1;stroke-dasharray:7,7;" fill="none" id="spec1-GMN44"/></g><!--link img13 to GMN47--><g class="link" data-entity-1="ent0008" data-entity-2="ent0048" id="lnk49" data-source-line="163" data-link-type="association"><path d="M408.05,113.497 C437.29,91.897 476.77,67.167 516.5,55.837 C555.63,44.667 1942.78,43.297 1981.5,55.837 C2018.65,67.867 2054.14,94.527 2079.17,116.797" style="stroke:#181818;stroke-width:1;stroke-dasharray:7,7;" fill="none" id="img13-GMN47"/></g><!--reverse link product2 to v200--><g class="link" data-entity-1="ent0051" data-entity-2="ent0052" id="lnk53" data-source-line="187" data-link-type="composition"><path d="M2739.789,203.324 C2746.239,244.694 2754.65,298.537 2761.09,339.827" style="stroke:#181818;stroke-width:1;" fill="none" id="product2-backto-v200" codeLine="187"/><polygon points="2737.94,191.467,2734.912,198.011,2739.789,203.324,2742.817,196.779,2737.94,191.467" fill="#181818" style="stroke:#181818;stroke-width:1;stroke-linejoin:miter;stroke-miterlimit:10;"/><text x="2787.189" y="234.084" fill="#000" font-size="13" textLength="91.368">has variations</text><text x="2754.058" y="249.217" fill="#000" font-size="13" textLength="157.631">(single SKU — a product</text><text x="2750.5" y="264.349" fill="#000" font-size="13" textLength="164.747">needs no more than one)</text><text x="2730.271" y="210.961" fill="#000" font-size="13">1</text><text x="2751.411" y="328.938" fill="#000" font-size="13">1</text></g><?plantuml-src hLdzRYEt4VzVJp5GKLWk95cIxu12FH_WitMDSPPjsBe4QQymg5rQOhmYjoJNEYS8q8Ve4_P9EZDShhHhoOSWoHyvInpEnsy-E3CwWDdQG6vDMYJUTK6AP0bkQTPABq10gXuUf9NQGoON8iCJaSikME6Nqe9V2Wr6ozP1v00FnYOo1MyW4TO-WtoI-Fz4E0cTfR0ftJ9WfKYxe8s7bR4IbCPhA-7Lappi8xFsMIQSKmdCf6o3SYX8WXCh2MjZ7v6z_2fMUIP1EAIsabLCv95Bbd8bZafTUedm8ZEBGlR2jLvvhRz2uVAhbpf5NcW8ybL-YQn8Jv8cV2KYDTBf0m-9GKlwqBx9XD8mBHQic9Ph-Dz__XiKL7J1bL0XDmOh7B5Y8BBChDsO88CdOHLQR7GNVfRMW5g91SeM-dbD6Y4Co65c5h94MZwpMs1DoWb8225qZrXOiGBpW1IeJYad4Hgn7IC3wC7iXsl8rPFnZXIov5UMRn8nBpA1tl5YZePsXFTMpGilxvz4Lg0kXKDuq3F41s1k_1B4LqKwff1AbrYLam67Z82J4jeSIq4MmTKGX8Zfm4j-pJEXsVpAMmp8N6NAFwE3WkwvLObaUGmF27JLsVNqvlDiSWw80yKHUBN2aDGKQU0ynXD-jSPxWGN17owpOWUE0ZDLMf0WSk52wa9fcJt32i7lUTEZVnjE2ceZhi49ZeHXEWIdTPas224IaUTIaF4LNSN7TGCdCiaZM9k30y2WoQHLqZ4JmYyJEKUcAJpC9NbEfPYBAk7mGkDk0dPtkKpK0tvDdCWc0RFlBcxFkr1eApFX2H9sCddgmKhPynZ_GPM8VuQwPlJ9oP2Q8Y0MFZoepACfo2DypgNjrT09IBUrYQug0xdDITKD5YC5kYo31pHrBf97I9QKJPHmGHahdScU40BbeNEQvr_kYZmtrd-v3GVVHv4N9EGmAggBB6krlF9eOea9RCLJID6r2S8vBT5f0gLevmLM3WSTOiH99TrX2vKv-Ht_aIqtjzVddyzcC6JXMmLjl1qDd98ohGB9eIVTxvNUoX5Qyi5s7MKrjYLlYwo2nxNXbrOBmCn_aeXXEvRrSOGL2H2t-FKlBNAQIk44XlodfY9zKY_WhU3O1TM0-v3H9p0Qz0S3U3T_tw6WYF5m-Eve_XxfVztM0V7fFLYZVV-dVB7HX2E0jL6hnN1GqsN0FEeiYFzh78Or3iCT75BfXSfUu_6cnkDDWySSg-gtBHdLU8nsyVYMAMzhBDusM3Zri-nXujbNrJYkyJZclz5TSvaPlN3qY6kp_OXHfTlblTbaqhkTdFVkDeAg96PXJyD1mta3_k0U2ugawdw88uwVUogE5ciX4hnBJ6Ric71vJsNWtH5_yPvZIsaiGGfV8mwtJNIzL6_wYdhro1WCTwattQFUQ1JZtAnrEDwdneVBpvDNOQf7nc3Kr2CmQEzZ_Pg9TMyFZdUodhQRpht5qZM6qzWuV4zzGs0fCZpRelo09tj9wN2BzculuTqMrNGlrNHRHIflOvZY6uWcPni8QcyctoJAwEfOn-Azu5tkY-XhZD4_mvdn7gysiulbdL6dyWrPeuOikjEGCyLk77iJM0ktn0uqIoiFn0hS7hRXBxqUjD-qGoQDOSaen4A_Y_PjkwoPsEMiTMYlhwykV_oY4vDJ0yBzfCIU7PzzIIn2WHn3Xxlmak5XUJ3QTt2yx-3DleEtkmvUw3zgbyuAnjPVCBmGq7t12KyEe8SCRgYlWU6uRAUmuOGszzKNTw6FVjha1zBZFOQszyy_BR1tql_glIy376KqkkRxKjfznUABxboSJwvc5xCV3_TmkWlV3tT8s7Co3T-Fcj-NcRJhg1HolF_AyKif3SX6uxAvfQOfWaOJ4lLhbzVNd-3oujCaWdR0newn5xsTJEA0OtIziuREgiYywl4nJdyRXAYaao8nL2EoJBaJvzERcydfxUdLsUGGSkDEXdkuKU3G-MZF-Plo_1WwnxPiphfX0At4bU54pXbZTrFGuCYQ7WK9E3ycFWkj9zyCxVrpzUHrQCm8FAfafMUrcdLZWuRlR1m6n6gk5WK6R0Hgk1CeCftV7DOhvIoEhywkIniyeaqZxjSf9h28dTxEBaulen9z-42J8Cz1dFrTmF0FyNDwUNVDBEYqx4MwEBAgP1cuSgnWgzs7AwDxSfLZSrveRY2qL3pgYi2Wc3lfoq84Xaus9DKKrD-AzMs3HX65hS3UUSuebJquJLhCRGkg5pVVHgYWmyT6bpxUc7TrFGleK2avR66vHeCbpS_UyAXUPJOAdv5rc0-fSbxfX3DYZGFF4fPOxiEmxisur8XA3ZdcZYVX3zUpxnfF85Z27VMX5sd7bDyDG_tycSUXyukF7oUtM9keo8Qn7SVz-X7ykv2EWxCFfs52GkguU5YR8ak3jIGE3qrIvZNfkKHF8JK1yJTs95SNU49U12h8b4e2Rs388AIWwat17yPLLfQ7UPgn8IyiOY_xBOcy2TGIMgiMIuwLfz0y8gvdPfKZAEMMAQm52CHoMuCrNZdMh0mk-eutNhN5IWlANGgRs6-qToSyTWAifC3KRKweDqGx7YU5fVrPXsg_bRwmvNjRpeS7hZuQ8LKdDAkr_GRbIz2GmMBT-QrE0HtsA7EFioouPvqmpao2bXEQCZ6KoXmTM5uM1j4GsIiWyjCQK3mbM6pwOe_GPoW_Lek4qCGS1I56RnjOtoKGPNDxq5mmbE7RBlkhBhIJy1U7LAttegXXBw8cgEF2cY9d5kK62qidXYyl83NI1HceO1yexuB5IuFXHc7FgmykFqc10RD2IiBVSNdJPcxIPqHJs0Gx8ymWgZrtAFRRkoooklt3yZcONhvRzQObv1s7VxLPUvBOtMGF_VPUJt6FXLTkjbSuFIv9_7YGYbUqMSq2niRcIw7HYPG4PEZc5GxhC-gcF4KDPe5QbSlRs7wLB3VA_75BaX5hLArMnplsgN7r71TCV-2Mf9BBMcoFjUXd-KpfWyMjYuMzkQNzJTkIslWsghN-cwNopcN9N_k3GNFqcdx-U-_cylJYQkzKDwhFrQFwN5tT_urpTMC06MswSloNPJOd46pC75OkpCgxJvz3wCNRNxIMCkKyvHy2uWyAt5pLOptAYuk8Vz3Id5yxfUkjOKmcvJRVf_to1GMuv6WYDTPMUTcp1GPPp5pCLaG_CJRbbfQ6Yo9PKlNbkut7jdmpGrU2hJ44EpUbBIeGd1rDhNvK8I9wTBugHwcwoQpI-AsM8NeFBT-v2XsF2vjTstFv8B2TxXnMvgv5zkZsRbx38-qTauPqjrX7n_nvsAVni6fS2JBksB0LVbGvaupwqSG3Ub7lLyGqB813BcagaDZRkArBn_qoZuxIe6ulef_hHVmvXIbfvxwK2VrsGrxEH2AfBQ9Uq2qLJYAXQukqP2NE9xHi1f6kL2nhHPuPmHvboYl-CZx65DpqCDBF9cHes4O7w3JzQ88lGNXw-OShZT9hplgrzNy0?></g></svg>